<svg width="240" height="240" viewBox="0 0 240 240" fill="none" xmlns="http://www.w3.org/2000/svg">

  <!-- Blob fondo -->
  <path d="M180 40C210 70 210 140 170 180C130 220 60 200 40 150C20 100 50 50 100 40C140 30 150 20 180 40Z"
        fill="#FCE8E8"/>

  <!-- Maceta -->
  <ellipse cx="120" cy="190" rx="50" ry="8" fill="#E5E7EB"/>
  <rect x="90" y="150" width="60" height="30" rx="6" fill="#F3F4F6"/>
  <rect x="85" y="145" width="70" height="10" rx="4" fill="#E5E7EB"/>

  <!-- Tallo -->
  <path d="M120 145C120 110 130 90 110 70C90 50 100 40 120 60C140 80 130 100 130 130"
        stroke="#B45353" stroke-width="2" fill="none"/>

  <!-- Hojas caídas -->
  <path d="M110 80C95 75 90 90 105 95C115 95 120 85 110 80Z"
        fill="#ECA5A5" stroke="#B45353" stroke-width="1"/>
  <path d="M135 95C150 90 155 105 140 110C130 110 125 100 135 95Z"
        fill="#ECA5A5" stroke="#B45353" stroke-width="1"/>
  <path d="M100 110C85 105 80 120 95 125C105 125 110 115 100 110Z"
        fill="#ECA5A5" stroke="#B45353" stroke-width="1"/>
  <path d="M140 120C155 115 160 130 145 135C135 135 130 125 140 120Z"
        fill="#ECA5A5" stroke="#B45353" stroke-width="1"/>

  <!-- Icono alerta -->
  <circle cx="180" cy="150" r="22" stroke="#DC2626" stroke-width="2" fill="none"/>
  <line x1="180" y1="138" x2="180" y2="155" stroke="#DC2626" stroke-width="2"/>
  <circle cx="180" cy="162" r="2" fill="#DC2626"/>

  <!-- Decoración -->
  <circle cx="70" cy="60" r="3" fill="#FCA5A5"/>
  <rect x="50" y="90" width="6" height="6" transform="rotate(45 50 90)" fill="#FCA5A5"/>
  <line x1="170" y1="70" x2="170" y2="80" stroke="#FCA5A5"/>
  <line x1="165" y1="75" x2="175" y2="75" stroke="#FCA5A5"/>

</svg>